<svg xmlns="http://www.w3.org/2000/svg" width="256" height="256" viewBox="0 0 100 100"><rect width="100" height="100" rx="20" fill="#0e0088"></rect><path d="M11.62 85.22L11.62 14.78L31.06 14.78Q38.60 14.78 42.37 18.96Q46.15 23.14 46.23 31.34L46.23 31.34L46.39 64.31Q46.47 74.72 42.78 79.97Q39.09 85.22 30.57 85.22L30.57 85.22L11.62 85.22ZM25.81 72.75L28.27 72.75Q32.12 72.75 32.12 68.98L32.12 68.98L32.12 32.66Q32.12 30.28 31.76 29.09Q31.39 27.90 30.40 27.49Q29.42 27.08 27.37 27.08L27.37 27.08L25.81 27.08L25.81 72.75ZM66.07 85.22L52.05 85.22L52.05 14.78L65.99 14.78L65.99 42.99L72.55 14.78L86.74 14.78L78.86 47.01L88.38 85.22L73.78 85.22L66.07 51.11L66.07 85.22Z" fill="#fff"></path></svg>